<svg width="140" height="39" viewBox="0 0 140 39" fill="none" xmlns="http://www.w3.org/2000/svg">
    <rect width="140" height="39" rx="19.5" fill="#97D28B"/>
    <path d="M21.664 13.784C22.3573 13.784 22.9547 13.8853 23.456 14.088C23.968 14.28 24.4747 14.584 24.976 15L24.08 15.928C23.6853 15.608 23.3067 15.3787 22.944 15.24C22.5813 15.1013 22.1547 15.032 21.664 15.032C21.0987 15.032 20.576 15.1867 20.096 15.496C19.6267 15.7947 19.2427 16.28 18.944 16.952C18.6453 17.6133 18.496 18.456 18.496 19.48C18.496 21.0267 18.7467 22.1573 19.248 22.872C19.76 23.5867 20.512 23.944 21.504 23.944C22.3147 23.944 23.0133 23.7787 23.6 23.448V20.12H21.648L21.472 18.888H25.104V24.216C23.9627 24.8667 22.7627 25.192 21.504 25.192C20.0533 25.192 18.9173 24.7067 18.096 23.736C17.2853 22.7653 16.88 21.3467 16.88 19.48C16.88 18.2853 17.0933 17.2613 17.52 16.408C17.9573 15.544 18.5387 14.8933 19.264 14.456C20 14.008 20.8 13.784 21.664 13.784ZM33.3418 20.536C33.3418 20.7813 33.3311 21.032 33.3098 21.288H27.9337C27.9977 22.216 28.2324 22.8987 28.6377 23.336C29.0431 23.7733 29.5657 23.992 30.2057 23.992C30.6111 23.992 30.9844 23.9333 31.3257 23.816C31.6671 23.6987 32.0244 23.512 32.3977 23.256L33.0378 24.136C32.1418 24.84 31.1604 25.192 30.0938 25.192C28.9204 25.192 28.0031 24.808 27.3417 24.04C26.6911 23.272 26.3657 22.216 26.3657 20.872C26.3657 19.9973 26.5044 19.224 26.7817 18.552C27.0697 17.8693 27.4751 17.336 27.9977 16.952C28.5311 16.568 29.1551 16.376 29.8698 16.376C30.9897 16.376 31.8484 16.744 32.4457 17.48C33.0431 18.216 33.3418 19.2347 33.3418 20.536ZM31.8857 20.104C31.8857 19.272 31.7204 18.6373 31.3898 18.2C31.0591 17.7627 30.5631 17.544 29.9018 17.544C28.6964 17.544 28.0404 18.4293 27.9337 20.2H31.8857V20.104ZM39.3085 24.616C38.7538 25 38.1245 25.192 37.4205 25.192C36.7058 25.192 36.1458 24.9893 35.7405 24.584C35.3458 24.168 35.1485 23.5707 35.1485 22.792V17.704H33.6765V16.568H35.1485V14.664L36.6205 14.488V16.568H38.6205L38.4605 17.704H36.6205V22.728C36.6205 23.1653 36.6952 23.4853 36.8445 23.688C37.0045 23.88 37.2658 23.976 37.6285 23.976C37.9592 23.976 38.3325 23.864 38.7485 23.64L39.3085 24.616ZM45.2601 16.568V25H43.7881V16.568H45.2601ZM44.5081 12.52C44.8175 12.52 45.0681 12.616 45.2601 12.808C45.4521 13 45.5481 13.24 45.5481 13.528C45.5481 13.816 45.4521 14.056 45.2601 14.248C45.0681 14.4293 44.8175 14.52 44.5081 14.52C44.2095 14.52 43.9641 14.4293 43.7721 14.248C43.5801 14.056 43.4841 13.816 43.4841 13.528C43.4841 13.24 43.5801 13 43.7721 12.808C43.9641 12.616 44.2095 12.52 44.5081 12.52ZM51.6317 16.376C52.3997 16.376 52.9971 16.6053 53.4237 17.064C53.8611 17.5227 54.0797 18.152 54.0797 18.952V25H52.6077V19.16C52.6077 18.5627 52.4957 18.1413 52.2717 17.896C52.0477 17.6507 51.7171 17.528 51.2797 17.528C50.8317 17.528 50.4371 17.656 50.0957 17.912C49.7544 18.168 49.4344 18.536 49.1357 19.016V25H47.6637V16.568H48.9277L49.0557 17.816C49.3544 17.368 49.7224 17.016 50.1597 16.76C50.6077 16.504 51.0984 16.376 51.6317 16.376ZM64.2491 24.616C63.6945 25 63.0651 25.192 62.3611 25.192C61.6465 25.192 61.0865 24.9893 60.6811 24.584C60.2865 24.168 60.0891 23.5707 60.0891 22.792V17.704H58.6171V16.568H60.0891V14.664L61.5611 14.488V16.568H63.5611L63.4011 17.704H61.5611V22.728C61.5611 23.1653 61.6358 23.4853 61.7851 23.688C61.9451 23.88 62.2065 23.976 62.5691 23.976C62.8998 23.976 63.2731 23.864 63.6891 23.64L64.2491 24.616ZM68.068 16.376C69.252 16.376 70.1693 16.7707 70.82 17.56C71.4813 18.3493 71.812 19.4213 71.812 20.776C71.812 21.6507 71.6627 22.424 71.364 23.096C71.0653 23.7573 70.6333 24.2747 70.068 24.648C69.5027 25.0107 68.8307 25.192 68.052 25.192C66.868 25.192 65.9453 24.7973 65.284 24.008C64.6227 23.2187 64.292 22.1467 64.292 20.792C64.292 19.9173 64.4413 19.1493 64.74 18.488C65.0387 17.816 65.4707 17.2987 66.036 16.936C66.6013 16.5627 67.2787 16.376 68.068 16.376ZM68.068 17.56C66.6067 17.56 65.876 18.6373 65.876 20.792C65.876 22.936 66.6013 24.008 68.052 24.008C69.5027 24.008 70.228 22.9307 70.228 20.776C70.228 18.632 69.508 17.56 68.068 17.56ZM79.8758 25H78.6118L78.4998 23.688C78.1798 24.2107 77.8118 24.5947 77.3958 24.84C76.9798 25.0747 76.4731 25.192 75.8758 25.192C75.1398 25.192 74.5638 24.968 74.1478 24.52C73.7318 24.072 73.5238 23.4373 73.5238 22.616V16.568H74.9958V22.456C74.9958 23.032 75.0971 23.4427 75.2998 23.688C75.5024 23.9227 75.8331 24.04 76.2918 24.04C77.1131 24.04 77.8171 23.5547 78.4038 22.584V16.568H79.8758V25ZM85.3482 16.376C85.8496 16.376 86.3082 16.4507 86.7242 16.6C87.1402 16.7387 87.5402 16.968 87.9242 17.288L87.2202 18.216C86.9216 18.0027 86.6282 17.848 86.3402 17.752C86.0629 17.6453 85.7536 17.592 85.4122 17.592C84.7296 17.592 84.1962 17.864 83.8122 18.408C83.4389 18.952 83.2522 19.7573 83.2522 20.824C83.2522 21.8907 83.4389 22.68 83.8122 23.192C84.1856 23.6933 84.7189 23.944 85.4122 23.944C85.7429 23.944 86.0469 23.896 86.3242 23.8C86.6016 23.6933 86.9109 23.528 87.2522 23.304L87.9242 24.264C87.1562 24.8827 86.2976 25.192 85.3482 25.192C84.2069 25.192 83.3056 24.808 82.6442 24.04C81.9936 23.272 81.6682 22.2107 81.6682 20.856C81.6682 19.96 81.8176 19.176 82.1162 18.504C82.4149 17.832 82.8362 17.3093 83.3802 16.936C83.9349 16.5627 84.5909 16.376 85.3482 16.376ZM93.2449 16.376C94.0129 16.376 94.6102 16.6053 95.0369 17.064C95.4742 17.5227 95.6929 18.152 95.6929 18.952V25H94.2209V19.16C94.2209 18.5627 94.1035 18.1413 93.8689 17.896C93.6449 17.6507 93.3142 17.528 92.8769 17.528C92.4395 17.528 92.0502 17.656 91.7089 17.912C91.3675 18.168 91.0475 18.5307 90.7489 19V25H89.2769V13.192L90.7489 13.032V17.736C91.4102 16.8293 92.2422 16.376 93.2449 16.376Z" fill="#173D33"/>
    <circle cx="117" cy="19.5" r="7" fill="#173D33"/>
    <path d="M119.276 20.3101L117 22.3334L114.723 20.3101" stroke="#173D33" stroke-width="0.833607" stroke-miterlimit="10" stroke-linecap="round" stroke-linejoin="round"/>
    <path d="M117 16.6667L117 22.2767" stroke="#173D33" stroke-width="0.833607" stroke-miterlimit="10" stroke-linecap="round" stroke-linejoin="round"/>
</svg>