<svg width="141" height="39" viewBox="0 0 141 39" fill="none" xmlns="http://www.w3.org/2000/svg">
<rect x="0.5" y="0.5" width="140" height="38" rx="19" stroke="#97D28B"/>
<path d="M19.12 13.476V23.172H23.648L23.472 24.5H17.6V13.476H19.12ZM30.8105 20.036C30.8105 20.2813 30.7998 20.532 30.7785 20.788H25.4025C25.4665 21.716 25.7012 22.3987 26.1065 22.836C26.5118 23.2733 27.0345 23.492 27.6745 23.492C28.0798 23.492 28.4532 23.4333 28.7945 23.316C29.1358 23.1987 29.4932 23.012 29.8665 22.756L30.5065 23.636C29.6105 24.34 28.6292 24.692 27.5625 24.692C26.3892 24.692 25.4718 24.308 24.8105 23.54C24.1598 22.772 23.8345 21.716 23.8345 20.372C23.8345 19.4973 23.9732 18.724 24.2505 18.052C24.5385 17.3693 24.9438 16.836 25.4665 16.452C25.9998 16.068 26.6238 15.876 27.3385 15.876C28.4585 15.876 29.3172 16.244 29.9145 16.98C30.5118 17.716 30.8105 18.7347 30.8105 20.036ZM29.3545 19.604C29.3545 18.772 29.1892 18.1373 28.8585 17.7C28.5278 17.2627 28.0318 17.044 27.3705 17.044C26.1652 17.044 25.5092 17.9293 25.4025 19.7H29.3545V19.604ZM38.045 22.532C38.045 22.8733 38.1037 23.1293 38.221 23.3C38.3383 23.46 38.5143 23.5827 38.749 23.668L38.413 24.692C37.9757 24.6387 37.6237 24.516 37.357 24.324C37.0903 24.132 36.893 23.8333 36.765 23.428C36.1997 24.2707 35.3623 24.692 34.253 24.692C33.421 24.692 32.765 24.4573 32.285 23.988C31.805 23.5187 31.565 22.9053 31.565 22.148C31.565 21.252 31.885 20.564 32.525 20.084C33.1757 19.604 34.093 19.364 35.277 19.364H36.573V18.74C36.573 18.1427 36.429 17.716 36.141 17.46C35.853 17.204 35.4103 17.076 34.813 17.076C34.1943 17.076 33.437 17.2253 32.541 17.524L32.173 16.452C33.2183 16.068 34.189 15.876 35.085 15.876C36.077 15.876 36.8183 16.1213 37.309 16.612C37.7997 17.092 38.045 17.78 38.045 18.676V22.532ZM34.589 23.588C35.4317 23.588 36.093 23.1507 36.573 22.276V20.34H35.469C33.9117 20.34 33.133 20.916 33.133 22.068C33.133 22.5693 33.2557 22.948 33.501 23.204C33.7463 23.46 34.109 23.588 34.589 23.588ZM44.0921 15.876C44.3908 15.876 44.6681 15.908 44.9241 15.972L44.6521 17.412C44.3961 17.348 44.1508 17.316 43.9161 17.316C43.3935 17.316 42.9721 17.508 42.6521 17.892C42.3321 18.276 42.0815 18.8733 41.9001 19.684V24.5H40.4281V16.068H41.6921L41.8361 17.78C42.0601 17.1507 42.3641 16.676 42.7481 16.356C43.1321 16.036 43.5801 15.876 44.0921 15.876ZM49.928 15.876C50.696 15.876 51.2933 16.1053 51.72 16.564C52.1573 17.0227 52.376 17.652 52.376 18.452V24.5H50.904V18.66C50.904 18.0627 50.792 17.6413 50.568 17.396C50.344 17.1507 50.0133 17.028 49.576 17.028C49.128 17.028 48.7333 17.156 48.392 17.412C48.0507 17.668 47.7307 18.036 47.432 18.516V24.5H45.96V16.068H47.224L47.352 17.316C47.6507 16.868 48.0187 16.516 48.456 16.26C48.904 16.004 49.3947 15.876 49.928 15.876ZM66.7534 15.876C67.4467 15.876 68.0014 16.1107 68.4174 16.58C68.8334 17.0387 69.0414 17.6627 69.0414 18.452V24.5H67.5694V18.66C67.5694 17.572 67.1747 17.028 66.3854 17.028C65.9694 17.028 65.6174 17.1507 65.3294 17.396C65.0414 17.6307 64.732 18.004 64.4014 18.516V24.5H62.9294V18.66C62.9294 17.572 62.5347 17.028 61.7454 17.028C61.3187 17.028 60.9614 17.1507 60.6734 17.396C60.3854 17.6413 60.0814 18.0147 59.7614 18.516V24.5H58.2894V16.068H59.5534L59.6814 17.3C60.3107 16.3507 61.1214 15.876 62.1134 15.876C62.636 15.876 63.0787 16.0093 63.4414 16.276C63.8147 16.5427 64.0814 16.916 64.2414 17.396C64.572 16.9053 64.9347 16.532 65.3294 16.276C65.7347 16.0093 66.2094 15.876 66.7534 15.876ZM74.5361 15.876C75.7201 15.876 76.6375 16.2707 77.2881 17.06C77.9495 17.8493 78.2801 18.9213 78.2801 20.276C78.2801 21.1507 78.1308 21.924 77.8321 22.596C77.5335 23.2573 77.1015 23.7747 76.5361 24.148C75.9708 24.5107 75.2988 24.692 74.5201 24.692C73.3361 24.692 72.4135 24.2973 71.7521 23.508C71.0908 22.7187 70.7601 21.6467 70.7601 20.292C70.7601 19.4173 70.9095 18.6493 71.2081 17.988C71.5068 17.316 71.9388 16.7987 72.5041 16.436C73.0695 16.0627 73.7468 15.876 74.5361 15.876ZM74.5361 17.06C73.0748 17.06 72.3441 18.1373 72.3441 20.292C72.3441 22.436 73.0695 23.508 74.5201 23.508C75.9708 23.508 76.6961 22.4307 76.6961 20.276C76.6961 18.132 75.9761 17.06 74.5361 17.06ZM83.7359 15.876C84.0345 15.876 84.3119 15.908 84.5679 15.972L84.2959 17.412C84.0399 17.348 83.7945 17.316 83.5599 17.316C83.0372 17.316 82.6159 17.508 82.2959 17.892C81.9759 18.276 81.7252 18.8733 81.5439 19.684V24.5H80.0719V16.068H81.3359L81.4799 17.78C81.7039 17.1507 82.0079 16.676 82.3919 16.356C82.7759 16.036 83.2239 15.876 83.7359 15.876ZM91.4874 20.036C91.4874 20.2813 91.4767 20.532 91.4554 20.788H86.0794C86.1434 21.716 86.378 22.3987 86.7834 22.836C87.1887 23.2733 87.7114 23.492 88.3514 23.492C88.7567 23.492 89.13 23.4333 89.4714 23.316C89.8127 23.1987 90.17 23.012 90.5434 22.756L91.1834 23.636C90.2874 24.34 89.306 24.692 88.2394 24.692C87.066 24.692 86.1487 24.308 85.4874 23.54C84.8367 22.772 84.5114 21.716 84.5114 20.372C84.5114 19.4973 84.65 18.724 84.9274 18.052C85.2154 17.3693 85.6207 16.836 86.1434 16.452C86.6767 16.068 87.3007 15.876 88.0154 15.876C89.1354 15.876 89.994 16.244 90.5914 16.98C91.1887 17.716 91.4874 18.7347 91.4874 20.036ZM90.0314 19.604C90.0314 18.772 89.866 18.1373 89.5354 17.7C89.2047 17.2627 88.7087 17.044 88.0474 17.044C86.842 17.044 86.186 17.9293 86.0794 19.7H90.0314V19.604Z" fill="#173D33"/>
<rect x="105" y="3.5" width="32" height="32" rx="16" fill="#97D28B"/>
<path d="M122.62 15.4531L126.667 19.4998L122.62 23.5465" stroke="#173D33" stroke-miterlimit="10" stroke-linecap="round" stroke-linejoin="round"/>
<path d="M115.333 19.5H126.553" stroke="#173D33" stroke-miterlimit="10" stroke-linecap="round" stroke-linejoin="round"/>
</svg>
