<svg width="99" height="39" viewBox="0 0 99 39" fill="none" xmlns="http://www.w3.org/2000/svg">
<rect x="0.5" y="0.5" width="98" height="38" rx="19" stroke="#97D28B"/>
<path d="M20.32 13.284C21.056 13.284 21.6853 13.3907 22.208 13.604C22.7307 13.8067 23.2373 14.1267 23.728 14.564L22.896 15.492C22.48 15.1613 22.0693 14.9213 21.664 14.772C21.2693 14.612 20.8427 14.532 20.384 14.532C19.808 14.532 19.3333 14.6653 18.96 14.932C18.5867 15.1987 18.4 15.588 18.4 16.1C18.4 16.42 18.464 16.692 18.592 16.916C18.72 17.1293 18.9547 17.3267 19.296 17.508C19.648 17.6893 20.1547 17.8813 20.816 18.084C21.5093 18.2973 22.0853 18.5267 22.544 18.772C23.0027 19.0173 23.3707 19.3587 23.648 19.796C23.936 20.2227 24.08 20.7667 24.08 21.428C24.08 22.068 23.92 22.6333 23.6 23.124C23.2907 23.6147 22.8373 23.9987 22.24 24.276C21.6533 24.5533 20.9547 24.692 20.144 24.692C18.6187 24.692 17.3707 24.2173 16.4 23.268L17.232 22.34C17.68 22.7027 18.1333 22.98 18.592 23.172C19.0507 23.3533 19.5627 23.444 20.128 23.444C20.8107 23.444 21.376 23.2787 21.824 22.948C22.272 22.6067 22.496 22.116 22.496 21.476C22.496 21.1133 22.4267 20.8147 22.288 20.58C22.1493 20.3347 21.9093 20.116 21.568 19.924C21.2373 19.732 20.752 19.54 20.112 19.348C18.9813 19.0067 18.1547 18.596 17.632 18.116C17.1093 17.636 16.848 16.9853 16.848 16.164C16.848 15.6093 16.992 15.1133 17.28 14.676C17.5787 14.2387 17.9893 13.8973 18.512 13.652C19.0453 13.4067 19.648 13.284 20.32 13.284ZM31.9668 20.036C31.9668 20.2813 31.9561 20.532 31.9348 20.788H26.5587C26.6227 21.716 26.8574 22.3987 27.2627 22.836C27.6681 23.2733 28.1907 23.492 28.8307 23.492C29.2361 23.492 29.6094 23.4333 29.9507 23.316C30.2921 23.1987 30.6494 23.012 31.0227 22.756L31.6628 23.636C30.7668 24.34 29.7854 24.692 28.7188 24.692C27.5454 24.692 26.6281 24.308 25.9667 23.54C25.3161 22.772 24.9907 21.716 24.9907 20.372C24.9907 19.4973 25.1294 18.724 25.4067 18.052C25.6947 17.3693 26.1001 16.836 26.6227 16.452C27.1561 16.068 27.7801 15.876 28.4948 15.876C29.6147 15.876 30.4734 16.244 31.0707 16.98C31.6681 17.716 31.9668 18.7347 31.9668 20.036ZM30.5107 19.604C30.5107 18.772 30.3454 18.1373 30.0148 17.7C29.6841 17.2627 29.1881 17.044 28.5268 17.044C27.3214 17.044 26.6654 17.9293 26.5587 19.7H30.5107V19.604ZM37.6455 15.876C38.4135 15.876 39.0108 16.1053 39.4375 16.564C39.8748 17.0227 40.0935 17.652 40.0935 18.452V24.5H38.6215V18.66C38.6215 18.0627 38.5095 17.6413 38.2855 17.396C38.0615 17.1507 37.7308 17.028 37.2935 17.028C36.8455 17.028 36.4508 17.156 36.1095 17.412C35.7682 17.668 35.4482 18.036 35.1495 18.516V24.5H33.6775V16.068H34.9415L35.0695 17.316C35.3682 16.868 35.7362 16.516 36.1735 16.26C36.6215 16.004 37.1122 15.876 37.6455 15.876ZM48.9405 12.676V24.5H47.6445L47.5005 23.332C47.2232 23.7587 46.8765 24.0947 46.4605 24.34C46.0445 24.5747 45.5805 24.692 45.0685 24.692C44.0658 24.692 43.2818 24.2973 42.7165 23.508C42.1618 22.7187 41.8845 21.6573 41.8845 20.324C41.8845 19.46 42.0178 18.692 42.2845 18.02C42.5512 17.348 42.9352 16.8253 43.4365 16.452C43.9378 16.068 44.5245 15.876 45.1965 15.876C46.0605 15.876 46.8178 16.2227 47.4685 16.916V12.5L48.9405 12.676ZM45.3885 23.524C45.8365 23.524 46.2205 23.4227 46.5405 23.22C46.8605 23.0067 47.1698 22.692 47.4685 22.276V18.148C47.1912 17.7853 46.8925 17.5133 46.5725 17.332C46.2632 17.14 45.9112 17.044 45.5165 17.044C44.8658 17.044 44.3592 17.316 43.9965 17.86C43.6445 18.404 43.4685 19.2147 43.4685 20.292C43.4685 21.38 43.6338 22.1907 43.9645 22.724C44.2952 23.2573 44.7698 23.524 45.3885 23.524Z" fill="#173D33"/>
<rect x="63" y="3.5" width="32" height="32" rx="16" fill="#97D28B"/>
<path d="M80.62 15.4531L84.6667 19.4998L80.62 23.5465" stroke="#173D33" stroke-miterlimit="10" stroke-linecap="round" stroke-linejoin="round"/>
<path d="M73.3333 19.5H84.5533" stroke="#173D33" stroke-miterlimit="10" stroke-linecap="round" stroke-linejoin="round"/>
</svg>
